<mxfile host="app.diagrams.net" modified="2021-05-03T23:49:43.452Z" agent="5.0 (Macintosh; Intel Mac OS X 10_15_7) AppleWebKit/537.36 (KHTML, like Gecko) Chrome/90.0.4430.93 Safari/537.36" etag="as_6vyx_WwCWZfCMNlgq" version="14.6.9" type="github">
  <diagram id="C5RBs43oDa-KdzZeNtuy" name="Page-1">
    <mxGraphModel dx="1284" dy="1658" grid="1" gridSize="10" guides="1" tooltips="1" connect="0" arrows="1" fold="1" page="1" pageScale="1" pageWidth="827" pageHeight="1169" math="0" shadow="0">
      <root>
        <mxCell id="WIyWlLk6GJQsqaUBKTNV-0" />
        <mxCell id="WIyWlLk6GJQsqaUBKTNV-1" parent="WIyWlLk6GJQsqaUBKTNV-0" />
        <mxCell id="QxfK5x0nZrCedAThmlhR-0" value="Start" style="ellipse;whiteSpace=wrap;html=1;" vertex="1" parent="WIyWlLk6GJQsqaUBKTNV-1">
          <mxGeometry x="-80" y="-100" width="110" height="60" as="geometry" />
        </mxCell>
        <mxCell id="QxfK5x0nZrCedAThmlhR-5" value="more than&lt;br&gt;one choice" style="rhombus;whiteSpace=wrap;html=1;" vertex="1" parent="WIyWlLk6GJQsqaUBKTNV-1">
          <mxGeometry x="-85" y="10" width="120" height="110" as="geometry" />
        </mxCell>
        <mxCell id="QxfK5x0nZrCedAThmlhR-10" value="Declare choice&lt;br&gt;the winner" style="shape=parallelogram;perimeter=parallelogramPerimeter;whiteSpace=wrap;html=1;fixedSize=1;" vertex="1" parent="WIyWlLk6GJQsqaUBKTNV-1">
          <mxGeometry x="-240" y="290" width="120" height="60" as="geometry" />
        </mxCell>
        <mxCell id="QxfK5x0nZrCedAThmlhR-11" value="Update winner&lt;br&gt;attribute of choice&lt;br&gt;to true" style="rounded=0;whiteSpace=wrap;html=1;" vertex="1" parent="WIyWlLk6GJQsqaUBKTNV-1">
          <mxGeometry x="-250" y="130" width="120" height="60" as="geometry" />
        </mxCell>
        <mxCell id="QxfK5x0nZrCedAThmlhR-12" value="False" style="text;html=1;strokeColor=none;fillColor=none;align=center;verticalAlign=middle;whiteSpace=wrap;rounded=0;" vertex="1" parent="WIyWlLk6GJQsqaUBKTNV-1">
          <mxGeometry x="-170" y="40" width="40" height="20" as="geometry" />
        </mxCell>
        <mxCell id="QxfK5x0nZrCedAThmlhR-14" value="" style="endArrow=none;html=1;strokeWidth=3;" edge="1" parent="WIyWlLk6GJQsqaUBKTNV-1">
          <mxGeometry width="50" height="50" relative="1" as="geometry">
            <mxPoint x="-190" y="60" as="sourcePoint" />
            <mxPoint x="-100" y="60" as="targetPoint" />
          </mxGeometry>
        </mxCell>
        <mxCell id="QxfK5x0nZrCedAThmlhR-15" value="" style="endArrow=none;html=1;strokeWidth=3;" edge="1" parent="WIyWlLk6GJQsqaUBKTNV-1">
          <mxGeometry width="50" height="50" relative="1" as="geometry">
            <mxPoint x="-190" y="130" as="sourcePoint" />
            <mxPoint x="-190" y="60" as="targetPoint" />
          </mxGeometry>
        </mxCell>
        <mxCell id="QxfK5x0nZrCedAThmlhR-16" value="" style="endArrow=none;html=1;strokeWidth=3;" edge="1" parent="WIyWlLk6GJQsqaUBKTNV-1">
          <mxGeometry width="50" height="50" relative="1" as="geometry">
            <mxPoint x="-190" y="280" as="sourcePoint" />
            <mxPoint x="-190" y="210" as="targetPoint" />
          </mxGeometry>
        </mxCell>
        <mxCell id="QxfK5x0nZrCedAThmlhR-18" value="" style="endArrow=none;html=1;strokeWidth=3;" edge="1" parent="WIyWlLk6GJQsqaUBKTNV-1">
          <mxGeometry width="50" height="50" relative="1" as="geometry">
            <mxPoint x="50" y="64.5" as="sourcePoint" />
            <mxPoint x="120" y="64.5" as="targetPoint" />
          </mxGeometry>
        </mxCell>
        <mxCell id="QxfK5x0nZrCedAThmlhR-19" value="" style="endArrow=none;html=1;strokeWidth=3;" edge="1" parent="WIyWlLk6GJQsqaUBKTNV-1">
          <mxGeometry width="50" height="50" relative="1" as="geometry">
            <mxPoint x="120" y="120" as="sourcePoint" />
            <mxPoint x="120" y="60" as="targetPoint" />
          </mxGeometry>
        </mxCell>
        <mxCell id="QxfK5x0nZrCedAThmlhR-20" value="True" style="text;html=1;strokeColor=none;fillColor=none;align=center;verticalAlign=middle;whiteSpace=wrap;rounded=0;" vertex="1" parent="WIyWlLk6GJQsqaUBKTNV-1">
          <mxGeometry x="60" y="40" width="40" height="20" as="geometry" />
        </mxCell>
        <mxCell id="QxfK5x0nZrCedAThmlhR-22" value="collect first-place&lt;br&gt;rankings for&lt;br&gt;each choice" style="rounded=0;whiteSpace=wrap;html=1;" vertex="1" parent="WIyWlLk6GJQsqaUBKTNV-1">
          <mxGeometry x="60" y="130" width="120" height="60" as="geometry" />
        </mxCell>
        <mxCell id="QxfK5x0nZrCedAThmlhR-23" value="#extracting_firsts" style="text;html=1;strokeColor=none;fillColor=none;align=center;verticalAlign=middle;whiteSpace=wrap;rounded=0;" vertex="1" parent="WIyWlLk6GJQsqaUBKTNV-1">
          <mxGeometry x="100" y="190" width="40" height="20" as="geometry" />
        </mxCell>
        <mxCell id="QxfK5x0nZrCedAThmlhR-24" value="#collect_choice_&lt;br&gt;rankings" style="text;html=1;strokeColor=none;fillColor=none;align=center;verticalAlign=middle;whiteSpace=wrap;rounded=0;" vertex="1" parent="WIyWlLk6GJQsqaUBKTNV-1">
          <mxGeometry x="-40" y="130" width="40" height="20" as="geometry" />
        </mxCell>
      </root>
    </mxGraphModel>
  </diagram>
</mxfile>
